<mxfile host="app.diagrams.net" agent="Mozilla/5.0 (Windows NT 10.0; Win64; x64) AppleWebKit/537.36 (KHTML, like Gecko) Chrome/137.0.0.0 Safari/537.36 Edg/137.0.0.0" version="27.1.6">
  <diagram name="Seite-1" id="i0RNxFCKhqyobDt0UE5h">
    <mxGraphModel dx="1229" dy="786" grid="1" gridSize="10" guides="1" tooltips="1" connect="1" arrows="1" fold="1" page="1" pageScale="1" pageWidth="827" pageHeight="1169" math="0" shadow="0">
      <root>
        <mxCell id="0" />
        <mxCell id="1" parent="0" />
        <mxCell id="BoVnt-nqR_kS759lwtKm-7" style="edgeStyle=orthogonalEdgeStyle;rounded=0;orthogonalLoop=1;jettySize=auto;html=1;" edge="1" parent="1" source="BoVnt-nqR_kS759lwtKm-3" target="BoVnt-nqR_kS759lwtKm-4">
          <mxGeometry relative="1" as="geometry" />
        </mxCell>
        <mxCell id="BoVnt-nqR_kS759lwtKm-3" value="" style="shape=ellipse;html=1;fillColor=strokeColor;fontSize=18;fontColor=#ffffff;" vertex="1" parent="1">
          <mxGeometry x="240" y="120" width="40" height="40" as="geometry" />
        </mxCell>
        <mxCell id="BoVnt-nqR_kS759lwtKm-9" style="edgeStyle=orthogonalEdgeStyle;rounded=0;orthogonalLoop=1;jettySize=auto;html=1;" edge="1" parent="1" source="BoVnt-nqR_kS759lwtKm-4" target="BoVnt-nqR_kS759lwtKm-6">
          <mxGeometry relative="1" as="geometry" />
        </mxCell>
        <mxCell id="BoVnt-nqR_kS759lwtKm-4" value="SelectMenu" style="shape=rect;html=1;rounded=1;whiteSpace=wrap;align=center;" vertex="1" parent="1">
          <mxGeometry x="180" y="240" width="160" height="80" as="geometry" />
        </mxCell>
        <mxCell id="BoVnt-nqR_kS759lwtKm-11" style="edgeStyle=orthogonalEdgeStyle;rounded=0;orthogonalLoop=1;jettySize=auto;html=1;entryX=0.5;entryY=1;entryDx=0;entryDy=0;" edge="1" parent="1" source="BoVnt-nqR_kS759lwtKm-5" target="BoVnt-nqR_kS759lwtKm-4">
          <mxGeometry relative="1" as="geometry">
            <Array as="points">
              <mxPoint x="260" y="480" />
            </Array>
          </mxGeometry>
        </mxCell>
        <mxCell id="BoVnt-nqR_kS759lwtKm-5" value="ClawMenu" style="shape=rect;html=1;rounded=1;whiteSpace=wrap;align=center;" vertex="1" parent="1">
          <mxGeometry x="340" y="440" width="160" height="80" as="geometry" />
        </mxCell>
        <mxCell id="BoVnt-nqR_kS759lwtKm-10" style="edgeStyle=orthogonalEdgeStyle;rounded=0;orthogonalLoop=1;jettySize=auto;html=1;entryX=1;entryY=0.5;entryDx=0;entryDy=0;" edge="1" parent="1" source="BoVnt-nqR_kS759lwtKm-6" target="BoVnt-nqR_kS759lwtKm-5">
          <mxGeometry relative="1" as="geometry" />
        </mxCell>
        <mxCell id="BoVnt-nqR_kS759lwtKm-6" value="MoveMenu" style="shape=rect;html=1;rounded=1;whiteSpace=wrap;align=center;" vertex="1" parent="1">
          <mxGeometry x="500" y="240" width="160" height="80" as="geometry" />
        </mxCell>
        <mxCell id="BoVnt-nqR_kS759lwtKm-8" style="edgeStyle=orthogonalEdgeStyle;rounded=0;orthogonalLoop=1;jettySize=auto;html=1;" edge="1" parent="1" source="BoVnt-nqR_kS759lwtKm-4" target="BoVnt-nqR_kS759lwtKm-4">
          <mxGeometry relative="1" as="geometry">
            <Array as="points">
              <mxPoint x="150" y="300" />
            </Array>
          </mxGeometry>
        </mxCell>
        <mxCell id="BoVnt-nqR_kS759lwtKm-12" value="toggle / S0" style="text;html=1;align=center;verticalAlign=middle;resizable=0;points=[];autosize=1;strokeColor=none;fillColor=none;" vertex="1" parent="1">
          <mxGeometry x="580" y="388" width="80" height="30" as="geometry" />
        </mxCell>
        <mxCell id="BoVnt-nqR_kS759lwtKm-13" value="toggle / S0" style="text;html=1;align=center;verticalAlign=middle;resizable=0;points=[];autosize=1;strokeColor=none;fillColor=none;" vertex="1" parent="1">
          <mxGeometry x="180" y="388" width="80" height="30" as="geometry" />
        </mxCell>
        <mxCell id="BoVnt-nqR_kS759lwtKm-15" value="toggle / S0" style="text;html=1;align=center;verticalAlign=middle;resizable=0;points=[];autosize=1;strokeColor=none;fillColor=none;" vertex="1" parent="1">
          <mxGeometry x="380" y="250" width="80" height="30" as="geometry" />
        </mxCell>
        <mxCell id="BoVnt-nqR_kS759lwtKm-16" style="edgeStyle=orthogonalEdgeStyle;rounded=0;orthogonalLoop=1;jettySize=auto;html=1;" edge="1" parent="1" source="BoVnt-nqR_kS759lwtKm-6" target="BoVnt-nqR_kS759lwtKm-6">
          <mxGeometry relative="1" as="geometry">
            <Array as="points">
              <mxPoint x="680" y="270" />
              <mxPoint x="680" y="300" />
            </Array>
          </mxGeometry>
        </mxCell>
        <mxCell id="BoVnt-nqR_kS759lwtKm-17" style="edgeStyle=orthogonalEdgeStyle;rounded=0;orthogonalLoop=1;jettySize=auto;html=1;" edge="1" parent="1" source="BoVnt-nqR_kS759lwtKm-5" target="BoVnt-nqR_kS759lwtKm-5">
          <mxGeometry relative="1" as="geometry">
            <Array as="points">
              <mxPoint x="440" y="550" />
            </Array>
          </mxGeometry>
        </mxCell>
        <mxCell id="BoVnt-nqR_kS759lwtKm-18" value="S7/ select(s_up)" style="text;html=1;align=center;verticalAlign=middle;resizable=0;points=[];autosize=1;strokeColor=none;fillColor=none;" vertex="1" parent="1">
          <mxGeometry x="15" y="250" width="110" height="30" as="geometry" />
        </mxCell>
        <mxCell id="BoVnt-nqR_kS759lwtKm-21" value="S7 / move(d_LEFT)" style="text;html=1;align=center;verticalAlign=middle;resizable=0;points=[];autosize=1;strokeColor=none;fillColor=none;" vertex="1" parent="1">
          <mxGeometry x="670" y="240" width="130" height="30" as="geometry" />
        </mxCell>
        <mxCell id="BoVnt-nqR_kS759lwtKm-22" value="S7/ select(s_down)" style="text;html=1;align=center;verticalAlign=middle;resizable=0;points=[];autosize=1;strokeColor=none;fillColor=none;" vertex="1" parent="1">
          <mxGeometry x="15" y="270" width="130" height="30" as="geometry" />
        </mxCell>
        <mxCell id="BoVnt-nqR_kS759lwtKm-23" value="S6 / move(d_RIGHT)" style="text;html=1;align=center;verticalAlign=middle;resizable=0;points=[];autosize=1;strokeColor=none;fillColor=none;" vertex="1" parent="1">
          <mxGeometry x="670" y="260" width="140" height="30" as="geometry" />
        </mxCell>
        <mxCell id="BoVnt-nqR_kS759lwtKm-24" value="S5 / move(d_FORWARD)" style="text;html=1;align=center;verticalAlign=middle;resizable=0;points=[];autosize=1;strokeColor=none;fillColor=none;" vertex="1" parent="1">
          <mxGeometry x="675" y="280" width="160" height="30" as="geometry" />
        </mxCell>
        <mxCell id="BoVnt-nqR_kS759lwtKm-25" value="S3 / move(d_UP)" style="text;html=1;align=center;verticalAlign=middle;resizable=0;points=[];autosize=1;strokeColor=none;fillColor=none;" vertex="1" parent="1">
          <mxGeometry x="670" y="320" width="120" height="30" as="geometry" />
        </mxCell>
        <mxCell id="BoVnt-nqR_kS759lwtKm-26" value="S4/ move(d_BACKWARD)" style="text;html=1;align=center;verticalAlign=middle;resizable=0;points=[];autosize=1;strokeColor=none;fillColor=none;" vertex="1" parent="1">
          <mxGeometry x="675" y="300" width="160" height="30" as="geometry" />
        </mxCell>
        <mxCell id="BoVnt-nqR_kS759lwtKm-27" value="S2 / move(d_DOWN)" style="text;html=1;align=center;verticalAlign=middle;resizable=0;points=[];autosize=1;strokeColor=none;fillColor=none;" vertex="1" parent="1">
          <mxGeometry x="670" y="340" width="140" height="30" as="geometry" />
        </mxCell>
        <mxCell id="BoVnt-nqR_kS759lwtKm-29" value="S7 / move(d_OPEN)&lt;div&gt;&lt;br&gt;&lt;/div&gt;" style="text;html=1;align=center;verticalAlign=middle;resizable=0;points=[];autosize=1;strokeColor=none;fillColor=none;" vertex="1" parent="1">
          <mxGeometry x="365" y="560" width="130" height="40" as="geometry" />
        </mxCell>
        <mxCell id="BoVnt-nqR_kS759lwtKm-30" value="&lt;span style=&quot;text-align: center; text-wrap-mode: nowrap;&quot;&gt;S6 / move(d_CLOSE)&lt;/span&gt;" style="text;whiteSpace=wrap;html=1;" vertex="1" parent="1">
          <mxGeometry x="380" y="580" width="100" height="30" as="geometry" />
        </mxCell>
      </root>
    </mxGraphModel>
  </diagram>
</mxfile>
